<?xml version="1.0" standalone="no"?>
<!DOCTYPE svg PUBLIC "-//W3C//DTD SVG 20010904//EN"
 "http://www.w3.org/TR/2001/REC-SVG-20010904/DTD/svg10.dtd">
<svg version="1.0" xmlns="http://www.w3.org/2000/svg"
 width="50.000000pt" height="50.000000pt" viewBox="0 0 50.000000 50.000000"
 preserveAspectRatio="xMidYMid meet">

<g transform="translate(0.000000,50.000000) scale(0.100000,-0.100000)"
fill="#ffffff" stroke="none">
<path d="M216 459 c-22 -17 -26 -28 -26 -67 1 -26 7 -58 15 -72 18 -32 18 -35
-1 -54 -9 -9 -32 -16 -56 -16 -39 0 -39 -1 -33 -30 6 -27 4 -30 -19 -30 -18 0
-26 -6 -27 -17 0 -11 -3 -13 -6 -5 -9 23 -23 12 -23 -18 0 -30 14 -41 23 -17
3 7 6 5 6 -5 1 -17 17 -18 191 -18 l190 0 0 40 c0 36 -2 40 -26 40 -23 0 -25
3 -19 30 6 29 6 30 -33 30 -24 0 -47 7 -56 16 -19 19 -19 22 -1 54 8 14 14 46
15 72 0 40 -4 49 -29 67 -37 26 -52 26 -85 0z m167 -249 c-5 -19 -14 -20 -123
-20 -109 0 -118 1 -123 20 -5 19 0 20 123 20 123 0 128 -1 123 -20z"/>
<path d="M90 55 l0 -35 170 0 170 0 0 35 0 35 -170 0 -170 0 0 -35z"/>
</g>
</svg>
